<svg width="48" height="48" viewBox="0 0 48 48" fill="none" xmlns="http://www.w3.org/2000/svg">
<path d="M14 18L8 12L14 6" stroke="black" stroke-width="4" stroke-linecap="round" stroke-linejoin="round"/>
<path d="M31.994 35.836C34.9561 35.3292 37.6204 33.7297 39.4603 31.3537C41.3003 28.9777 42.1822 25.998 41.9316 23.0033C41.6811 20.0086 40.3165 17.2168 38.1073 15.1795C35.8981 13.1422 33.0051 12.0077 30 12H8M12 28V40M18 31V37C18 37.7956 18.3161 38.5587 18.8787 39.1213C19.4413 39.6839 20.2044 40 21 40C21.7956 40 22.5587 39.6839 23.1213 39.1213C23.6839 38.5587 24 37.7956 24 37V31C24 30.2044 23.6839 29.4413 23.1213 28.8787C22.5587 28.3161 21.7956 28 21 28C20.2044 28 19.4413 28.3161 18.8787 28.8787C18.3161 29.4413 18 30.2044 18 31Z" stroke="black" stroke-width="4" stroke-linecap="round" stroke-linejoin="round"/>
</svg>
