<svg width="48" height="48" viewBox="0 0 48 48" fill="none" xmlns="http://www.w3.org/2000/svg">
<path d="M34 18L40 12L34 6" stroke="black" stroke-width="4" stroke-linecap="round" stroke-linejoin="round"/>
<path d="M16 35.836C13.2027 35.3644 10.663 33.9165 8.83219 31.7495C7.00137 29.5826 5.9979 26.8368 6 24C6 20.8174 7.26429 17.7652 9.51472 15.5147C11.7652 13.2643 14.8174 12 18 12H40M24 28V40M30 31V37C30 37.7956 30.3161 38.5587 30.8787 39.1213C31.4413 39.6839 32.2044 40 33 40C33.7957 40 34.5587 39.6839 35.1213 39.1213C35.6839 38.5587 36 37.7956 36 37V31C36 30.2044 35.6839 29.4413 35.1213 28.8787C34.5587 28.3161 33.7957 28 33 28C32.2044 28 31.4413 28.3161 30.8787 28.8787C30.3161 29.4413 30 30.2044 30 31Z" stroke="black" stroke-width="4" stroke-linecap="round" stroke-linejoin="round"/>
</svg>
