<svg width="48" height="48" viewBox="0 0 48 48" fill="none" xmlns="http://www.w3.org/2000/svg">
<path fill-rule="evenodd" clip-rule="evenodd" d="M12 44C10.9 44 9.958 43.608 9.174 42.824C8.39 42.04 7.99867 41.0987 8 40V8C8 6.9 8.392 5.958 9.176 5.174C9.96 4.39 10.9013 3.99867 12 4H26.35C26.8833 4 27.392 4.1 27.876 4.3C28.36 4.5 28.7847 4.78334 29.15 5.15L38.85 14.85C39.2167 15.2167 39.5 15.642 39.7 16.126C39.9 16.61 40 17.118 40 17.65V40C40 41.1 39.608 42.042 38.824 42.826C38.04 43.61 37.0987 44.0013 36 44H12ZM26 16C26 16.5667 26.192 17.042 26.576 17.426C26.96 17.81 27.4347 18.0013 28 18H36L26 8V16ZM18 23.5C18 24.8807 16.8807 26 15.5 26C14.1193 26 13 24.8807 13 23.5C13 22.1193 14.1193 21 15.5 21C16.8807 21 18 22.1193 18 23.5ZM29.1977 26.5C28.8128 25.8333 27.8505 25.8333 27.4656 26.5L22.5581 35H22.3731L19.1976 29.5C18.8127 28.8333 17.8505 28.8333 17.4656 29.5L13.1355 37C12.7506 37.6667 13.2317 38.5 14.0015 38.5H17.3317V38.5H25.4984V38.5H34.3938C35.1636 38.5 35.6448 37.6667 35.2599 37L29.1977 26.5Z" fill="black"/>
</svg>
