<svg width="48" height="48" viewBox="0 0 48 48" fill="none" xmlns="http://www.w3.org/2000/svg">
<path d="M12 44C10.9 44 9.958 43.608 9.174 42.824C8.39 42.04 7.99867 41.0987 8 40V8C8 6.9 8.392 5.958 9.176 5.174C9.96 4.39 10.9013 3.99867 12 4H26.35C26.8833 4 27.392 4.1 27.876 4.3C28.36 4.5 28.7847 4.78334 29.15 5.15L38.85 14.85C39.2167 15.2167 39.5 15.642 39.7 16.126C39.9 16.61 40 17.118 40 17.65V40C40 41.1 39.608 42.042 38.824 42.826C38.04 43.61 37.0987 44.0013 36 44H12ZM26 16C26 16.5667 26.192 17.042 26.576 17.426C26.96 17.81 27.4347 18.0013 28 18H36L26 8V16ZM21.5 38C22.7667 38 23.8333 37.5667 24.7 36.7C25.5667 35.8333 26 34.7667 26 33.5V26H30C30.5667 26 31.042 25.808 31.426 25.424C31.81 25.04 32.0013 24.5653 32 24C32 23.4333 31.808 22.958 31.424 22.574C31.04 22.19 30.5653 21.9987 30 22H26C25.4333 22 24.958 22.192 24.574 22.576C24.19 22.96 23.9987 23.4347 24 24V29.75C23.6333 29.4833 23.2413 29.2913 22.824 29.174C22.4067 29.0567 21.9653 28.9987 21.5 29C20.2333 29 19.1667 29.4333 18.3 30.3C17.4333 31.1667 17 32.2333 17 33.5C17 34.7667 17.4333 35.8333 18.3 36.7C19.1667 37.5667 20.2333 38 21.5 38Z" fill="black"/>
</svg>
