<svg width="48" height="48" viewBox="0 0 48 48" fill="none" xmlns="http://www.w3.org/2000/svg">
<g clip-path="url(#clip0_108_18)">
<path d="M4 10V38C4 39.72 6.024 40.636 7.318 39.506L23.318 25.506C23.5328 25.3183 23.705 25.0868 23.823 24.8271C23.9409 24.5673 24.002 24.2853 24.002 24C24.002 23.7148 23.9409 23.4328 23.823 23.173C23.705 22.9133 23.5328 22.6818 23.318 22.494L7.318 8.49403C6.024 7.36403 4 8.28203 4 10ZM26 10V38C26 39.72 28.024 40.636 29.318 39.506L45.318 25.506C45.5328 25.3183 45.705 25.0868 45.823 24.8271C45.9409 24.5673 46.002 24.2853 46.002 24C46.002 23.7148 45.9409 23.4328 45.823 23.173C45.705 22.9133 45.5328 22.6818 45.318 22.494L29.318 8.49403C28.024 7.36403 26 8.28203 26 10Z" fill="black"/>
</g>
<defs>
<clipPath id="clip0_108_18">
<rect width="48" height="48" fill="white"/>
</clipPath>
</defs>
</svg>
