<svg width="48" height="48" viewBox="0 0 48 48" fill="none" xmlns="http://www.w3.org/2000/svg">
<g clip-path="url(#clip0_108_6)">
<path d="M12 7.99995V40C11.9999 40.3558 12.0947 40.7053 12.2748 41.0122C12.4548 41.3192 12.7134 41.5726 13.024 41.7462C13.3347 41.9199 13.686 42.0075 14.0418 42.0001C14.3976 41.9926 14.7449 41.8904 15.048 41.704L41.048 25.704C41.3392 25.525 41.5797 25.2744 41.7465 24.9761C41.9133 24.6778 42.0009 24.3417 42.0009 24C42.0009 23.6582 41.9133 23.3221 41.7465 23.0238C41.5797 22.7255 41.3392 22.4749 41.048 22.296L15.048 6.29595C14.7449 6.10948 14.3976 6.00726 14.0418 5.99983C13.686 5.99239 13.3347 6.08002 13.024 6.25367C12.7134 6.42733 12.4548 6.68071 12.2748 6.98768C12.0947 7.29465 11.9999 7.64409 12 7.99995Z" fill="black"/>
</g>
<defs>
<clipPath id="clip0_108_6">
<rect width="48" height="48" fill="white"/>
</clipPath>
</defs>
</svg>
