<svg width="48" height="48" viewBox="0 0 48 48" fill="none" xmlns="http://www.w3.org/2000/svg">
<g clip-path="url(#clip0_108_14)">
<path d="M40.682 8.49405L24.682 22.4941C24.4672 22.6818 24.295 22.9133 24.177 23.173C24.0591 23.4328 23.998 23.7148 23.998 24.0001C23.998 24.2853 24.0591 24.5673 24.177 24.8271C24.295 25.0868 24.4672 25.3183 24.682 25.5061L40.682 39.5061C41.976 40.6361 44 39.7181 44 38.0001V10.0001C44 8.28005 41.976 7.36405 40.682 8.49405ZM18.682 8.49405L2.68201 22.4941C2.46719 22.6818 2.29501 22.9133 2.17705 23.173C2.05908 23.4328 1.99805 23.7148 1.99805 24.0001C1.99805 24.2853 2.05908 24.5673 2.17705 24.8271C2.29501 25.0868 2.46719 25.3183 2.68201 25.5061L18.682 39.5061C19.976 40.6361 22 39.7181 22 38.0001V10.0001C22 8.28005 19.976 7.36405 18.682 8.49405Z" fill="black"/>
</g>
<defs>
<clipPath id="clip0_108_14">
<rect width="48" height="48" fill="white"/>
</clipPath>
</defs>
</svg>
