<svg width="48" height="48" viewBox="0 0 48 48" fill="none" xmlns="http://www.w3.org/2000/svg">
<g clip-path="url(#clip0_102_2)">
<path d="M32 4C33.0092 3.99968 33.9811 4.38081 34.7211 5.06699C35.4611 5.75317 35.9143 6.69369 35.99 7.7L36 8V16H38C38.4899 16.0001 38.9627 16.1799 39.3287 16.5054C39.6948 16.8309 39.9287 17.2795 39.986 17.766L40 18V32C39.9999 34.5769 39.0049 37.0543 37.2227 38.9156C35.4404 40.7768 33.0085 41.8782 30.434 41.99L30 42H18C15.4231 41.9999 12.9457 41.0049 11.0844 39.2227C9.22321 37.4404 8.12184 35.0085 8.01 32.434L8 32V18C8.00006 17.5101 8.17991 17.0373 8.50543 16.6713C8.83095 16.3052 9.2795 16.0713 9.766 16.014L10 16H12V8C11.9997 6.99085 12.3808 6.01887 13.067 5.2789C13.7532 4.53894 14.6937 4.08569 15.7 4.01L16 4H32ZM36 20H12V32C12 33.5913 12.6321 35.1174 13.7574 36.2426C14.8826 37.3679 16.4087 38 18 38H30C31.5913 38 33.1174 37.3679 34.2426 36.2426C35.3679 35.1174 36 33.5913 36 32V20ZM32 8H16V16H32V8ZM22 10V14H18V10H22ZM30 10V14H26V10H30Z" fill="black"/>
</g>
<defs>
<clipPath id="clip0_102_2">
<rect width="48" height="48" fill="white"/>
</clipPath>
</defs>
</svg>
