<svg width="48" height="48" viewBox="0 0 48 48" fill="none" xmlns="http://www.w3.org/2000/svg">
<path d="M12 44C10.9 44 9.958 43.608 9.174 42.824C8.39 42.04 7.99867 41.0987 8 40V8C8 6.9 8.392 5.958 9.176 5.174C9.96 4.39 10.9013 3.99867 12 4H26.35C26.8833 4 27.392 4.1 27.876 4.3C28.36 4.5 28.7847 4.78334 29.15 5.15L38.85 14.85C39.2167 15.2167 39.5 15.642 39.7 16.126C39.9 16.61 40 17.118 40 17.65V40C40 41.1 39.608 42.042 38.824 42.826C38.04 43.61 37.0987 44.0013 36 44H12ZM26 16C26 16.5667 26.192 17.042 26.576 17.426C26.96 17.81 27.4347 18.0013 28 18H36L26 8V16ZM18 36H26C26.5667 36 27.042 35.808 27.426 35.424C27.81 35.04 28.0013 34.5653 28 34V32L30.55 33.35C30.8833 33.5167 31.2087 33.5 31.526 33.3C31.8433 33.1 32.0013 32.8167 32 32.45V27.55C32 27.1833 31.8413 26.9 31.524 26.7C31.2067 26.5 30.882 26.4833 30.55 26.65L28 28V26C28 25.4333 27.808 24.9587 27.424 24.576C27.04 24.1933 26.5653 24.0013 26 24H18C17.4333 24 16.958 24.192 16.574 24.576C16.19 24.96 15.9987 25.4347 16 26V34C16 34.5667 16.192 35.042 16.576 35.426C16.96 35.81 17.4347 36.0013 18 36Z" fill="black"/>
</svg>
